# xmcd
#
# Track frame offsets:
#	150
#	13006
#	26575
#	39305
#	52132
#	64116
#	76772
#	89223
#	101485
#	113733
#	126546
#	138737
#	151945
#	166411
#	181679
#	194285
#	207977
#	221430
#	234757
#	249215
#	263198
#	278546
#	291748
#	304321
#	315999
#	327268
#
# Disc length: 4534 seconds
#
# Revision: 1
# Processed by: cddbd v1.5.2PL0 Copyright (c) Steve Scherf et al.
# Submitted via: audiograbber 1.83.01
#
DISCID=7311b41a
DTITLE=Sonny Boy Williamson - The Original Sonny Boy Williamson - The Later Yea
DTITLE=rs - 1942-1947
DYEAR=2012
DGENRE=Blues
TTITLE0=Sonney Boy Williamson - What's Gettin' Wrong With You
TTITLE1=Sonney Boy Williamson - Blues That Made Me Drunk
TTITLE2=Sonney Boy Williamson - Come On Baby And Take A Walk
TTITLE3=Sonney Boy Williamson - Miss Stella Brown Blues
TTITLE4=Sonney Boy Williamson - Desperado Woman Blues
TTITLE5=Sonney Boy Williamson - Win The War Blues
TTITLE6=Sonney Boy Williamson - Check Up On My Baby Blues
TTITLE7=Sonney Boy Williamson - G. M. and O. Blues
TTITLE8=Sonney Boy Williamson - We Got To Win
TTITLE9=Sonney Boy Williamson - Sonny Boy's Jump
TTITLE10=Sonney Boy Williamson - Elevator Woman
TTITLE11=Big Joe Williams - Drop Down Blues
TTITLE12=Big Joe Williams - Somebody's Been Worryin'
TTITLE13=Big Joe Williams - Wanita
TTITLE14=Big Joe Williams - Vitamin A
TTITLE15=Sonney Boy Williamson - Early In The Morning
TTITLE16=Sonney Boy Williamson - The Big Boat
TTITLE17=Sonney Boy Williamson - Stop Breaking Down
TTITLE18=Sonney Boy Williamson - You're An Old Lady
TTITLE19=Sonney Boy Williamson - Sonny Boy's Cold Chills
TTITLE20=Sonney Boy Williamson - Mean Old Highway
TTITLE21=Sonney Boy Williamson - Hoodoo Hoodoo
TTITLE22=Sonney Boy Williamson - Shake The Boogie
TTITLE23=Sonney Boy Williamson - Mellow Chick Swing
TTITLE24=Sonney Boy Williamson - Polly Put Your Kettle On
TTITLE25=Sonney Boy Williamson - Lacey Belle
EXTD=
EXTT0=
EXTT1=
EXTT2=
EXTT3=
EXTT4=
EXTT5=
EXTT6=
EXTT7=
EXTT8=
EXTT9=
EXTT10=
EXTT11=
EXTT12=
EXTT13=
EXTT14=
EXTT15=
EXTT16=
EXTT17=
EXTT18=
EXTT19=
EXTT20=
EXTT21=
EXTT22=
EXTT23=
EXTT24=
EXTT25=
PLAYORDER=
